PathFileType	4	(X/Y/Z)	/Users/visionmauri/Downloads/Videos/OAW08-top_Sports2D/OAW08-top_Sports2D_m_person00.trc
DataRate	CameraRate	NumFrames	NumMarkers	Units	OrigDataRate	OrigDataStartFrame	OrigNumFrames
30.0	30.0	6	22	m	30.0	1340	2144
Frame#	Time	Hip			RHip			RKnee			RAnkle			RBigToe			RSmallToe			RHeel			LHip			LKnee			LAnkle			LBigToe			LSmallToe			LHeel			Neck			Head			Nose			RShoulder			RElbow			RWrist			LShoulder			LElbow			LWrist			
		X1	Y1	Z1	X2	Y2	Z2	X3	Y3	Z3	X4	Y4	Z4	X5	Y5	Z5	X6	Y6	Z6	X7	Y7	Z7	X8	Y8	Z8	X9	Y9	Z9	X10	Y10	Z10	X11	Y11	Z11	X12	Y12	Z12	X13	Y13	Z13	X14	Y14	Z14	X15	Y15	Z15	X16	Y16	Z16	X17	Y17	Z17	X18	Y18	Z18	X19	Y19	Z19	X20	Y20	Z20	X21	Y21	Z21	X22	Y22	Z22
1340	44.68750972157412	1.5473863228601028	0.40557809848314974	0.0301	1.5984566228495198	0.4458267442658158	0.0301	1.7528519265088347	0.2684994251013036	0.129	1.8868705525432008	0.11363203948823439	0.023	1.8906882563632728	0.13113445533916926	0.2179	1.9301130879169939	0.1407959603561904	0.1804	1.9106571272859236	0.07215975135170288	-0.0119	1.5044026242251798	0.35485607233912486	0.0301	1.7009528916215828	0.16905026668466244	0.129	1.8893992280916825	-0.022228121856443576	0.023	1.9192579717911271	-0.029560838869308537	0.2179	1.8962301760442222	-0.07636940936311974	0.1804	1.926798862987359	-0.06732154504474981	-0.0119	1.327749738560088	0.6826363778824571	0.0008	1.2400051827949996	0.7575150800345956	0.0655	1.2931717248103605	0.6868221681927458	0.1076	1.4308077937901824	0.7358569488912174	-0.01275	1.6091683871810836	0.6067373571690093	0.0702	1.7555897158149139	0.49844472076991925	0.1076	1.263976795527712	0.5893674055975443	-0.01275	1.363760643662524	0.40525454758902496	0.0702	1.4763747834807202	0.3047362936562767	0.1076
1341	44.720858609426045	1.548408065458826	0.40802200778162745	0.0301	1.597734870506525	0.4476579981139212	0.0301	1.7527655225535475	0.2683167580337795	0.129	1.8855092013553463	0.11279574726144641	0.023	1.892712353576166	0.12739220603511006	0.2179	1.9324398757532886	0.1367297726743135	0.1804	1.908457309203338	0.06948470478072766	-0.0119	1.5058322771535804	0.3590203574018097	0.0301	1.7006526982651338	0.17327226184336147	0.129	1.8813631309838712	-0.014269489931507751	0.023	1.9175629484082934	-0.029091871931966197	0.2179	1.8911928064947876	-0.07391154981794658	0.1804	1.9205760022181222	-0.06162073405956416	-0.0119	1.3325403047788953	0.6870688697572388	0.0008	1.2513210307796236	0.7680774532106492	0.0655	1.3067517775304056	0.7032865496501317	0.1076	1.4331206637779643	0.737629039331426	-0.01275	1.6080169878595556	0.609774701615897	0.0702	1.7536107295564223	0.5009220402241946	0.1076	1.2663639920012397	0.5940247819256028	-0.01275	1.3635455731017352	0.4093882320748064	0.0702	1.475293135404581	0.31006685531890754	0.1076
1342	44.75420749727796	1.5505831754429729	0.4106231655763278	0.0301	1.5970249148786526	0.45058031493344786	0.0301	1.7540943707924448	0.2688470749460751	0.129	1.8870035328117476	0.11024282011851018	0.023	1.8972414083797118	0.1214596732736133	0.2179	1.9387887198264673	0.13090622331584012	0.1804	1.9103564781972977	0.06427215235459431	-0.0119	1.5070377939938848	0.36452029167641004	0.0301	1.6980836253277773	0.17850815004253082	0.129	1.8704651031818853	-0.0037950619442524546	0.023	1.9162218058381604	-0.030886809477074624	0.2179	1.8855816028883698	-0.07201011439769434	0.1804	1.9113204672348212	-0.052615671170086725	-0.0119	1.3361754229284941	0.6892596779286934	0.0008	1.2582971289410763	0.7730402683613411	0.0655	1.3149104052893865	0.7113231355945016	0.1076	1.4341108622136107	0.7381680919935124	-0.01275	1.6057530449353263	0.6135689962331518	0.0702	1.750410608381161	0.5037981618439928	0.1076	1.2701022443006487	0.5983018318675759	-0.01275	1.364350876609636	0.41316344658217946	0.0702	1.4747814687358245	0.31374846007951396	0.1076
1343	44.78755638512988	1.5504455789001301	0.4171397872851711	0.0301	1.5949602236308096	0.45703626518950424	0.0301	1.7553349926123067	0.27198138432294566	0.129	1.8893835780250585	0.10770195577821363	0.023	1.9022470109511076	0.11430399651366309	0.2179	1.9446217466063573	0.12503993571872848	0.1804	1.9131467470965795	0.06044821588108796	-0.0119	1.5053446809724482	0.37388644931591725	0.0301	1.6911217179919256	0.18740638478736996	0.129	1.8572441016080021	0.009661848433752474	0.023	1.914035020796173	-0.032539457195518214	0.2179	1.8794343425837483	-0.07047221294516037	0.1804	1.8974077496108168	-0.03901065999979399	-0.0119	1.338369892528327	0.6912740979983434	0.0008	1.2604105790071825	0.7769918178156872	0.0655	1.3180306564849629	0.7162612560350756	0.1076	1.4354585359051002	0.7399164360341465	-0.01275	1.604949537973968	0.6175871536443276	0.0702	1.7465556249307341	0.507144348743643	0.1076	1.2725042491034488	0.6026459631363453	-0.01275	1.3647343738805944	0.41862517817262923	0.0702	1.4738260704271249	0.3170695941084188	0.1076
1344	44.820905272981804	1.546767341203647	0.42729686321323024	0.0301	1.5924275916607467	0.4652431385425926	0.0301	1.7556123840255	0.27694051792981483	0.129	1.8909080213143243	0.10617271725136862	0.023	1.905883063825	0.10811562183762538	0.2179	1.9476184701899755	0.11988074044794438	0.1804	1.9153855835382985	0.05815209891688025	-0.0119	1.5017427285243936	0.3849477945794102	0.0301	1.6819197433944926	0.19908492283612672	0.129	1.8403529245034507	0.0279552574481858	0.023	1.9096599997089132	-0.030725276771495297	0.2179	1.872539946216631	-0.06610208535471926	0.1804	1.8785633784016131	-0.020006841270959103	-0.0119	1.3374835499900428	0.6969927743681286	0.0008	1.2597254286562412	0.7865083520167736	0.0655	1.3224912324015392	0.7257406624687096	0.1076	1.4371854362891598	0.7441124514273103	-0.01275	1.6056329197854655	0.6213509123747611	0.0702	1.7422089432233496	0.5112745196678616	0.1076	1.2716218784913327	0.6080076789080537	-0.01275	1.3631839407170014	0.4264491917297892	0.0702	1.4711591219447675	0.3201004064074462	0.1076
1345	44.854254160833726	1.5423489804793447	0.43716257638576067	0.0301	1.5913099919933236	0.47186382456397263	0.0301	1.7550861473230885	0.28139811658973946	0.129	1.8907607804699076	0.1063013096008143	0.023	1.9081007326291202	0.10394808082286275	0.2179	1.9490962478531588	0.11556504876853575	0.1804	1.917567530598088	0.05705929923398386	-0.0119	1.499010474887791	0.39352319105299666	0.0301	1.673880058314257	0.21088470226750422	0.129	1.8189003015818517	0.05181932155120412	0.023	1.9025000318918879	-0.023451052355655158	0.2179	1.863809048660344	-0.05568995787753817	0.1804	1.8565495228532083	0.004634675436395447	-0.0119	1.3337918012954306	0.7064240240322938	0.0008	1.2567665929022893	0.7987587859820312	0.0655	1.3295687289507234	0.7368421468522688	0.1076	1.4384510010620386	0.7498053923820304	-0.01275	1.60594147282804	0.6251773247263843	0.0702	1.7375156357755965	0.5158514601186773	0.1076	1.2690818778540038	0.6144225504450225	-0.01275	1.3603105761975451	0.4350662564171499	0.0702	1.4661840243831974	0.32231259159772496	0.1076
